<svg id="visual" viewBox="0 0 1920 1080" width="1920" height="1080" xmlns="http://www.w3.org/2000/svg" xmlns:xlink="http://www.w3.org/1999/xlink" version="1.1"><path d="M0 853L40 870.5C80 888 160 923 240 930.8C320 938.7 400 919.3 480 912C560 904.7 640 909.3 720 914.3C800 919.3 880 924.7 960 924.2C1040 923.7 1120 917.3 1200 908.7C1280 900 1360 889 1440 896.5C1520 904 1600 930 1680 941C1760 952 1840 948 1880 946L1920 944L1920 1081L1880 1081C1840 1081 1760 1081 1680 1081C1600 1081 1520 1081 1440 1081C1360 1081 1280 1081 1200 1081C1120 1081 1040 1081 960 1081C880 1081 800 1081 720 1081C640 1081 560 1081 480 1081C400 1081 320 1081 240 1081C160 1081 80 1081 40 1081L0 1081Z" fill="#FFFFFF" stroke-linecap="round" stroke-linejoin="miter"></path></svg>