<svg id="visual" viewBox="0 0 1920 600" width="1920" height="600" xmlns="http://www.w3.org/2000/svg" xmlns:xlink="http://www.w3.org/1999/xlink" version="1.1"><path d="M0 388L45.7 384.8C91.3 381.7 182.7 375.3 274.2 373.3C365.7 371.3 457.3 373.7 548.8 377.5C640.3 381.3 731.7 386.7 823 387.8C914.3 389 1005.7 386 1097 386.8C1188.3 387.7 1279.7 392.3 1371.2 395.8C1462.7 399.3 1554.3 401.7 1645.8 397.2C1737.3 392.7 1828.7 381.3 1874.3 375.7L1920 370L1920 601L1874.3 601C1828.7 601 1737.3 601 1645.8 601C1554.3 601 1462.7 601 1371.2 601C1279.7 601 1188.3 601 1097 601C1005.7 601 914.3 601 823 601C731.7 601 640.3 601 548.8 601C457.3 601 365.7 601 274.2 601C182.7 601 91.3 601 45.7 601L0 601Z" fill="#FFFFFF" stroke-linecap="round" stroke-linejoin="miter"></path></svg>