<?xml version="1.0" encoding="utf-8"?>
<!-- Generator: Adobe Illustrator 16.0.0, SVG Export Plug-In . SVG Version: 6.00 Build 0)  -->
<!DOCTYPE svg PUBLIC "-//W3C//DTD SVG 1.1//EN" "http://www.w3.org/Graphics/SVG/1.1/DTD/svg11.dtd">
<svg version="1.1" id="레이어_1" xmlns="http://www.w3.org/2000/svg" xmlns:xlink="http://www.w3.org/1999/xlink" x="0px"
	 y="0px" width="1280px" height="1280px" viewBox="0 0 1280 1280" enable-background="new 0 0 1280 1280" xml:space="preserve">
<g transform="translate(0.000000,1280.000000) scale(0.100000,-0.100000)">
	<path fill="#FFFFFF" d="M6984.999,12430.002c-2.998-6.006,7.002-17.998,24.004-27.998c17.002-9.004,30.996-20,30.996-24.004
		c0-10-80.996-50-147.002-72.998c-131.992-47.002-265-206.006-328.994-395c-17.002-50-19.004-77.998-14.004-290
		c2.998-129.004,5-320,5-425c-0.996-170-2.998-197.998-23.994-265c-43.008-139.004-115-256.006-151.006-245
		c-12.002,3.994-42.002-14.004-90.996-55c-41.006-32.998-92.002-69.004-114.004-79.004c-175-85.996-245-122.998-295-160
		c-78.994-57.998-282.002-267.002-358.994-370.996c-75-100-158.008-187.998-221.006-235c-25-18.008-112.002-70-195-115
		c-82.002-45-187.998-104.004-232.998-131.006c-117.998-70-245-132.002-364.003-180C4387.002,9310.998,4315,9273,4240,9215.002
		C4166.001,9158,4033.999,9018,3987.998,8948.996c-35.996-53.994-150-275.996-180.996-350.996l-16.001-37.002l-78.999,5.996
		l-79.004,6.006L3590,8533.996c-48.999-43.994-97.998-140.996-197.998-388.994C3266.001,7830.999,3220,7600.999,3220,7288.997
		c0-275,62.998-467.002,192.002-585.996c58.999-54.004,78.999-64.004,238.999-116.006c73.999-25,187.998-70,253.999-100
		c173.999-80,222.002-90.996,390-90c230,1.006,404.999,33.008,510.995,94.004l56.006,32.002l-7.002-34.004
		c-37.002-165,39.004-540,129.004-637.001c10.996-12.998,21.992-37.998,21.992-55c1.006-17.998,5-67.998,9.004-112.998
		c7.002-77.998,7.002-82.998-27.998-160c-35-80-49.004-135-87.002-363.994c-22.998-136.006-50.996-263.008-104.004-465
		c-107.998-416.006-126.992-461.006-290.995-700c-177.998-260-237.002-351.006-290-456.006
		c-107.002-208.994-237.002-578.994-336.001-953.994c-10-38.008-25-97.002-33.999-130c-31.001-119.004-115-498.008-115-522.002
		c0-2.002-11.001-2.998-26.001-2.998c-31.001,0-50-41.006-70-150c-6.997-41.006-20-94.004-27.998-118.008
		c-16.001-43.994-96.001-207.998-138.999-283.994c-13.003-24.004-36.001-72.002-51.001-107.998
		c-26.001-65-118.003-388.008-120-424.004C3295,831.995,3327.998,803.997,3415,745.003c108.999-74.004,130-84.004,237.998-115
		c100-28.008,121.001-31.006,141.001-21.006c20,11.006,28.999,10,63.003-12.002c105.996-66.992,295-143.994,428.994-173.994
		c66.006-15,126.006-17.998,364.003-17.998c312.002,0.996,489.004,15,590,46.992c75,24.004,75,24.004,84.004,61.006
		c5,22.998,2.002,28.994-19.004,38.994c-20.996,9.004-25,18.008-25,52.002c0,52.002-17.998,87.002-52.998,104.004
		c-15.996,7.998-82.002,23.994-147.002,37.002c-65,12.998-147.998,37.998-185,53.994
		c-182.002,82.998-345.995,262.002-412.001,452.998c-22.998,66.006-25,87.002-25,219.004
		c1.006,164.004,26.006,304.004,61.006,347.998c65.995,82.002,103.993,202.002,124.999,391.006
		c18.994,167.998,37.998,225,157.998,465c52.002,105,125.996,257.998,163.994,340c116.006,255,122.002,263.994,180.01,283.994
		c220,74.004,445.996,392.998,703.994,991.006c32.002,73.994,80,181.992,107.002,240c27.002,57.998,55.996,120,64.004,137.998
		c6.992,17.002,16.992,32.002,20.996,32.002c12.998,0,222.998-329.004,302.002-472.002c57.002-105,282.002-587.998,310-667.002
		c30-84.004,85.996-295,85.996-325.996c0-27.002,82.998-351.006,114.004-446.006c60-183.994,160-407.998,262.002-590
		c40.996-73.994,76.992-122.998,126.992-170.996c52.002-51.006,67.002-72.998,62.002-87.002
		c-2.998-12.002,4.004-32.998,19.004-55.996c13.994-20,27.998-56.006,32.002-81.006c2.998-25,21.992-68.994,43.994-102.998
		c20-30.996,42.998-74.004,50-95s25-52.998,42.002-70.996c27.002-32.002,27.998-35,14.004-57.002
		c-15-22.998-14.004-27.002,25-77.998c42.998-58.008,90.996-148.008,126.992-240c23.008-60,106.006-386.006,117.002-461.006
		c9.004-58.994,14.004-65.996,49.004-70.996c25-2.998,30.996-9.004,42.998-50c15.996-57.002,60.996-97.998,107.002-97.998
		c50.996,0,132.002,27.998,245.996,85c110,55,269.004,123.994,331.006,143.994c20,7.002,38.994,20,41.992,30
		c3.008,14.004,18.008,19.004,63.008,24.004c95,10,171.992,33.994,278.994,85.996c107.998,52.002,567.998,346.006,625,400
		c19.004,17.998,50,44.004,67.998,59.004c19.004,13.994,59.004,57.002,89.004,95.996l55,71.006l-37.002,15.996
		c-20,9.004-50,30.996-67.002,49.004c-27.998,30.996-30.996,31.992-85.996,26.992c-30.996-3.994-84.004-13.994-117.002-21.992
		c-107.002-29.004-257.002-45-415-45c-312.998,0-470,38.994-620,155c-85.996,67.998-145.996,133.994-187.002,210
		c-37.998,68.994-38.994,70-82.998,72.998c-75,5-78.994,10-38.994,45c68.994,60.996,53.994,152.998-31.006,197.998
		c-18.994,10.996-45.996,19.004-60,19.004c-20.996,0-25.996,5-25,26.992c0,24.004-5,28.008-40.996,35
		c-37.002,8.008-42.998,13.008-52.002,46.006c-5,20-32.002,100-60,177.002c-110.996,313.994-215,633.994-244.004,753.994
		c-27.998,112.998-30.996,140-30,271.006c0,80-3.994,158.994-8.994,176.992c-7.998,24.004-7.002,39.004,5.996,62.002
		c25,49.004,35,124.004,25,182.998c-3.994,29.004-42.998,146.006-85,258.008c-210,555-253.994,697.998-305,975.996
		c-30.996,170-113.994,485-168.994,644.004c-28.008,80-73.008,210-100,290c-28.008,80-51.006,155.996-51.006,167.998
		c0,30,22.998,78.994,55,115.996c14.004,16.006,25,34.004,25,40c0,5-18.994,49.004-42.002,96.006
		c-42.998,85-42.998,85.996-40.996,185c0.996,55-2.002,120.996-7.998,145.996c-9.004,40-7.002,55.996,13.994,120
		c45,132.998,87.002,377.998,87.002,500V7538l101.006,12.002c125,15,340.996,7.998,463.994-15c127.998-24.004,290-24.004,335,0
		c22.998,12.998,51.006,17.998,80,16.992c37.002-2.998,54.004,3.008,95,29.004c31.006,20,60,32.002,77.002,30
		c35.996-2.998,105.996,34.004,125,67.002c15,25.996,17.998,27.002,112.002,27.998c105.996,0.996,165,19.004,175.996,52.998
		c6.006,19.004,14.004,21.006,91.006,21.006h83.994V7848v67.998L8627.997,7928c-50.996,7.002-182.998,17.002-292.998,22.002
		c-313.994,15-318.994,15.996-293.994,60.996c7.998,15.996,5,29.004-15,64.004c-30,50.996-74.004,80-142.002,95.996
		c-44.004,10-64.004,7.998-162.998-15c-123.008-29.004-173.008-50-210-90l-24.004-25.996h-239.004h-237.998L6991.005,8078
		c-19.004,37.998-19.004,37.998,0.996,82.998c12.998,29.004,22.998,80,29.004,147.998c8.994,107.998,12.998,117.002,86.992,236.006
		c41.006,63.994,49.004,113.994,61.006,345c5.996,103.994,15,217.998,20,251.992c5.996,35,17.998,113.008,27.998,173.008
		c25,150.996,22.998,325.996-5.996,480c-44.004,237.002-51.006,317.998-30,357.998c22.998,42.002,120,167.002,136.992,175
		c9.004,5,37.002,12.002,62.002,15.996c25,4.004,70,19.004,100,34.004c60,30,102.002,85.996,130,172.998
		c7.998,24.004,30,69.004,49.004,97.998c85.996,136.006,165.996,351.006,200,537.002c38.994,216.006,67.002,577.002,52.002,679.004
		c-20,135.996-93.008,253.994-227.002,368.994c-145,124.004-260,167.002-515,190
		C6972.001,12443,6992.997,12442.004,6984.999,12430.002z"/>
</g>
</svg>
